<?xml version="1.0" standalone="no"?>
<!DOCTYPE svg PUBLIC "-//W3C//DTD SVG 20010904//EN"
 "http://www.w3.org/TR/2001/REC-SVG-20010904/DTD/svg10.dtd">
<svg version="1.0" xmlns="http://www.w3.org/2000/svg"
 width="500.000000pt" height="500.000000pt" viewBox="0 0 500.000000 500.000000"
 preserveAspectRatio="xMidYMid meet">

<g transform="translate(0.000000,500.000000) scale(0.100000,-0.100000)"
fill="#000000" stroke="none">
<path d="M3919 4569 c-42 -10 -93 -38 -251 -142 -389 -256 -754 -592 -994
-913 -260 -350 -440 -746 -518 -1144 -24 -121 -23 -120 -61 -56 -57 95 -139
193 -244 289 -45 43 -54 47 -69 35 -15 -12 -16 -11 -4 4 9 11 10 18 2 23 -5 3
-10 4 -10 1 0 -4 -14 7 -31 24 -18 16 -37 30 -43 30 -6 0 -4 -5 4 -11 13 -9
13 -10 0 -6 -8 2 -15 10 -15 18 0 7 -8 15 -19 17 -13 3 -16 0 -11 -9 6 -9 2
-10 -16 -5 -46 14 -194 18 -234 7 -30 -8 -41 -8 -47 2 -15 24 -7 36 37 52 44
17 111 17 160 1 11 -4 8 0 -7 8 -37 22 -153 31 -206 17 -80 -22 -133 -99 -110
-160 8 -22 66 -102 225 -306 147 -189 278 -399 379 -604 188 -383 184 -376
264 -460 l75 -79 65 -7 c65 -6 221 14 258 34 58 31 94 131 116 316 43 367 128
745 230 1027 135 371 323 723 544 1017 199 265 361 431 704 721 112 95 143
166 93 216 -25 25 -31 26 -89 22 -66 -6 -65 -5 -230 -114 -49 -33 -96 -63
-105 -69 -61 -38 -306 -227 -401 -308 -123 -105 -301 -276 -388 -371 -29 -32
-56 -56 -59 -52 -4 3 -1 6 6 6 7 0 9 5 6 10 -3 6 1 13 9 16 9 3 16 15 16 25 0
10 14 31 30 46 17 14 30 32 30 39 0 7 8 18 18 23 9 6 13 11 9 11 -12 0 64 70
76 70 6 0 8 3 4 6 -5 6 43 63 92 107 14 12 52 47 85 78 34 31 74 67 90 80 15
13 37 32 48 42 20 19 82 67 176 139 97 72 334 228 348 228 8 0 14 5 14 10 0
11 -1 11 -51 -1z m-1690 -2504 c0 -5 -4 -3 -9 5 -5 8 -9 22 -9 30 0 16 17 -16
18 -35z"/>
</g>
</svg>
